HIERARCHY
ROOT Hips
{
  OFFSET 0 0 0
  CHANNELS 6 Xposition Yposition Zposition Zrotation Yrotation Xrotation
  JOINT LeftThigh
  {
    OFFSET 8.409438 0 -5.917753
    CHANNELS 3 Zrotation Yrotation Xrotation
    JOINT LeftLeg
    {
      OFFSET 0 0 -42.358652
      CHANNELS 3 Zrotation Yrotation Xrotation
      JOINT LeftFoot
      {
        OFFSET 0 0 -39.357303
        CHANNELS 3 Zrotation Yrotation Xrotation
      }
    }
  }
  JOINT RightThigh
  {
    OFFSET -8.409438 0 -5.917753
    CHANNELS 3 Zrotation Yrotation Xrotation
    JOINT RightLeg
    {
      OFFSET 0 0 -42.358652
      CHANNELS 3 Zrotation Yrotation Xrotation
      JOINT RightFoot
      {
        OFFSET 0 0 -39.357303
        CHANNELS 3 Zrotation Yrotation Xrotation
      }
    }
  }
  JOINT SpineLow
  {
    OFFSET 0 0 4.719101
    CHANNELS 3 Zrotation Yrotation Xrotation
    JOINT SpineMid
    {
      OFFSET 0 0 12.899191
      CHANNELS 3 Zrotation Yrotation Xrotation
      JOINT Chest
      {
        OFFSET 0 0 12.899191
        CHANNELS 3 Zrotation Yrotation Xrotation
        JOINT LeftShoulder
        {
          OFFSET 7.550562 1.41573 9.438202
          CHANNELS 3 Zrotation Yrotation Xrotation
          JOINT LeftArm
          {
            OFFSET 9.155056 0 4.247191
            CHANNELS 3 Zrotation Yrotation Xrotation
            JOINT LeftForearm
            {
              OFFSET 0 0 25.771955
              CHANNELS 3 Zrotation Yrotation Xrotation
              JOINT LeftHand
              {
                OFFSET 0 0 25.197169
                CHANNELS 3 Zrotation Yrotation Xrotation
              }
            }
          }
        }
        JOINT RightShoulder
        {
          OFFSET -7.550562 1.41573 9.438202
          CHANNELS 3 Zrotation Yrotation Xrotation
          JOINT RightArm
          {
            OFFSET -9.155056 0 4.247191
            CHANNELS 3 Zrotation Yrotation Xrotation
            JOINT RightForearm
            {
              OFFSET 0 0 -25.771955
              CHANNELS 3 Zrotation Yrotation Xrotation
              JOINT RightHand
              {
                OFFSET 0 0 -25.197169
                CHANNELS 3 Zrotation Yrotation Xrotation
              }
            }
          }
        }
        JOINT Neck
        {
          OFFSET 0 0 15.101124
          CHANNELS 3 Zrotation Yrotation Xrotation
          JOINT Head
          {
            OFFSET 0 0 11.325843
            CHANNELS 3 Zrotation Yrotation Xrotation
            End Site
            {
              OFFSET 0 0 14.157303
            }
          }
        }
      }
    }
  }
}
MOTION
Frames: 17
Frame Time: 0.0
0.0  101.685394  0.0  0.040039  -18.709718  -104.288166  24.746972  -20.726707  10.179906  -2.351474  6.541438  26.087092  11.866886  4.629215  5.76426  7.455622  9.576149  -0.199325  8.495151  7.487726  20.631102  1.956954  1.757533  -3.650098  -1.809447  -0.111955  3.205621  -4.950781  -0.065761  8.764983  -4.950781  -0.065761  8.764983  -6.61804  29.129558  3.119303  -132.395336  67.487929  -93.762976  -12.081819  -40.613744  100.4835  115.099047  28.698779  -22.307616  5.93294  -0.075977  15.409499  57.139769  23.639152  18.605194  -55.172777  25.286404  -87.615743  74.893362  24.255911  31.9919  10.913456  2.039582  -5.246742  8.202453  1.436655  -3.972581  
0.0  101.685394  0.0  0.159698  -19.54734  -104.121333  25.452049  -20.675641  10.110417  -2.454538  6.739113  25.868355  11.940655  4.61139  5.712611  7.779977  9.59768  -0.691713  8.468488  7.531539  20.545989  2.526821  1.708333  -3.67829  -1.795367  -0.144686  3.167786  -4.916721  -0.159671  8.664096  -4.91672  -0.159671  8.664096  -6.165108  29.170697  3.46403  -133.107311  67.052601  -94.914349  -12.575155  -40.233129  101.066825  115.057774  28.750082  -22.070198  6.461965  -0.387688  15.338001  57.941604  24.930547  19.424309  -55.345009  26.188057  -87.762907  74.592539  24.036311  32.243717  11.145684  2.155534  -5.26215  8.377571  1.521409  -3.987049  
0.0  101.685394  0.0  0.267285  -20.399469  -103.949012  26.220193  -20.638796  9.929583  -2.358582  6.818828  25.822489  11.781293  4.598567  5.60401  8.186114  9.632434  -1.123366  8.638374  7.497816  20.443313  2.85932  1.578321  -3.695738  -1.760818  -0.182137  3.163552  -4.82738  -0.266608  8.655287  -4.82738  -0.266608  8.655287  -5.905882  29.145687  3.595713  -133.93286  66.692474  -95.901273  -12.980353  -39.927292  101.375221  114.930391  28.752538  -22.118257  6.934785  -0.596055  15.237275  58.72308  26.290541  20.1477  -55.802693  27.131874  -87.936634  73.995007  23.916171  31.932466  11.431979  2.335645  -5.366629  8.594091  1.652177  -4.069818  
0.0  101.685394  0.0  0.333443  -21.190348  -103.739816  26.867751  -20.580141  9.674268  -2.100632  6.833276  25.879107  11.615681  4.577671  5.522322  8.168923  9.688508  -1.69497  8.942252  7.450618  20.402357  3.34033  1.440226  -3.732378  -1.684407  -0.211233  3.183292  -4.622807  -0.354553  8.711149  -4.622807  -0.354553  8.711149  -6.121157  28.939483  3.492615  -134.665955  66.342844  -96.86294  -13.361618  -39.664867  101.681643  114.87232  28.757903  -22.20124  7.071118  -0.848019  15.099124  59.603372  27.68672  20.828817  -56.127198  27.803259  -87.994063  73.634754  23.817112  31.660683  11.432414  2.414957  -5.625269  8.596134  1.706862  -4.265299  
0.0  101.685394  0.0  0.43595  -21.96764  -103.577295  27.732961  -20.58581  9.482672  -1.964223  6.808108  25.909445  11.181555  4.594969  5.368372  8.26126  9.700926  -2.135355  9.320081  7.456229  20.364364  3.674092  1.298256  -3.780976  -1.646123  -0.234677  3.183421  -4.521468  -0.423506  8.713014  -4.521468  -0.423506  8.713014  -5.914564  28.861659  3.610272  -135.229426  66.033637  -97.596579  -13.737848  -39.402235  102.031868  114.837187  28.74834  -22.312749  7.496479  -0.946845  15.31034  60.438784  29.124404  21.407166  -56.212366  28.069642  -87.972759  73.702048  23.715042  31.487476  11.71759  2.55812  -5.734899  8.811658  1.809607  -4.351436  
0.0  101.685394  0.0  0.518739  -22.4223  -103.288478  28.111066  -20.380003  9.119827  -1.940396  6.737282  25.914338  10.691309  4.642259  5.210029  7.68735  9.787594  -2.806526  9.610991  7.522192  20.370005  4.278582  1.198755  -3.824735  -1.676201  -0.251644  3.153336  -4.605624  -0.467903  8.632143  -4.605623  -0.467903  8.632142  -5.617385  28.82011  3.753999  -135.625321  65.801091  -98.130448  -14.049387  -39.214855  102.27511  114.798489  28.719415  -22.394712  7.85621  -1.035243  15.718481  61.534959  30.606063  22.040957  -56.051043  28.177187  -88.130336  73.975081  23.458058  31.540347  12.012466  2.645283  -5.829668  9.033958  1.87043  -4.425534  
0.0  101.685394  0.0  0.687308  -23.027691  -103.131562  28.65229  -20.188728  8.879337  -1.881258  6.745571  26.091135  10.252444  4.653671  4.97262  7.587568  9.830534  -3.299971  10.033332  7.568156  20.440066  4.52728  1.078472  -3.853698  -1.659969  -0.25736  3.167182  -4.562162  -0.484647  8.670296  -4.562162  -0.484647  8.670295  -5.451843  28.741673  3.741102  -135.783322  65.552205  -98.475216  -14.392797  -38.962286  102.668722  114.740652  28.674742  -22.407543  8.265173  -1.02513  15.937581  62.499455  31.956235  22.624693  -56.029713  28.117261  -88.118853  74.165125  23.435051  31.142075  12.355825  2.811937  -5.989974  9.293631  1.989038  -4.55068  
0.0  101.685394  0.0  0.824637  -23.425054  -102.909579  28.645425  -19.85289  8.470481  -1.847392  6.817452  26.382274  10.175316  4.687513  4.830262  7.301617  9.88877  -3.927219  9.85158  7.733193  20.555236  5.206768  1.037586  -3.866303  -1.68295  -0.263136  3.177614  -4.625668  -0.496649  8.699319  -4.625668  -0.496649  8.699319  -5.250513  28.700194  3.668321  -135.80575  65.374017  -98.555737  -14.653765  -38.754844  102.920075  114.653299  28.619897  -22.325911  8.605686  -1.042709  15.856753  63.750572  33.054934  23.493657  -55.907885  28.093672  -88.212372  74.474636  23.260125  31.170483  12.678216  2.940408  -6.197178  9.537559  2.078056  -4.710319  
0.0  101.685394  0.0  1.031283  -23.908827  -102.751454  28.767876  -19.515813  8.11901  -1.844507  6.97888  26.755289  10.251132  4.699627  4.692356  7.367692  9.920019  -4.489611  10.007134  7.840017  20.845169  5.412789  0.97216  -3.887378  -1.669494  -0.260393  3.199492  -4.588705  -0.489418  8.758825  -4.588706  -0.489418  8.758825  -5.145087  28.624851  3.561266  -135.625567  65.157157  -98.543753  -14.969987  -38.442386  103.351032  114.525972  28.536599  -22.138519  8.953378  -1.030195  15.729355  64.862404  34.115804  24.327679  -55.794276  27.912413  -88.201768  74.493111  23.082477  30.265874  13.058896  3.133549  -6.399537  9.825827  2.214903  -4.868114  
0.0  101.685394  0.0  1.145682  -24.189608  -102.58445  28.455756  -19.20588  7.691532  -1.637449  7.146065  27.273819  10.477423  4.726686  4.649533  7.343236  9.843346  -5.03152  9.829335  8.08243  21.197346  5.716898  0.892341  -3.915752  -1.690033  -0.263294  3.21207  -4.645183  -0.49372  8.793496  -4.645183  -0.49372  8.793495  -4.879091  28.60578  3.543222  -135.44951  65.135641  -98.179757  -15.188557  -38.203644  103.453507  114.365802  28.421697  -21.868225  8.947543  -1.130441  15.423014  66.512423  34.998932  25.571998  -55.630585  27.619192  -88.258417  74.378771  23.020048  29.016559  13.356068  3.213457  -6.605083  10.050554  2.267341  -5.025659  
0.0  101.685394  0.0  1.320093  -24.486641  -102.446236  28.342546  -18.87828  7.266538  -1.454255  7.300868  27.846118  10.43972  4.757049  4.505277  7.590523  9.758597  -5.511031  9.774229  8.353796  21.672062  5.877409  0.813275  -3.949836  -1.683707  -0.257034  3.222568  -4.627142  -0.476756  8.821697  -4.627142  -0.476757  8.821698  -4.742393  28.554472  3.522597  -134.990564  65.016034  -97.816273  -15.458865  -37.820073  103.853371  114.214475  28.285795  -21.558271  9.128047  -1.093747  15.332623  67.707714  35.938074  26.524724  -55.348434  27.252608  -88.316444  74.394151  23.077258  28.151739  13.743066  3.377694  -6.786263  10.343343  2.382443  -5.167363  
0.0  101.685394  0.0  1.419163  -24.571629  -102.306256  28.186802  -18.729887  6.856292  -1.395188  7.522214  28.428978  10.363575  4.807125  4.318144  7.700504  9.625245  -6.013443  9.635829  8.643573  22.257805  5.874744  0.746088  -3.981882  -1.710891  -0.259733  3.232857  -4.701705  -0.479755  8.850127  -4.701705  -0.479755  8.850128  -4.434156  28.628967  3.5446  -134.554893  65.08118  -97.08482  -15.575064  -37.560979  103.933793  114.107485  28.178408  -21.277479  8.926424  -1.035064  15.127371  69.484459  36.706933  27.781905  -55.178397  26.902117  -88.489807  74.476907  23.212026  27.450948  14.116861  3.486531  -6.984689  10.625882  2.455494  -5.320899  
0.0  101.685394  0.0  1.554828  -24.635962  -102.227405  28.049385  -18.5828  6.433778  -1.33817  7.77635  29.11578  10.189836  4.88705  4.089592  7.925483  9.48321  -6.481053  9.691421  8.912293  22.99617  5.861954  0.740236  -4.012673  -1.707014  -0.253088  3.260617  -4.690359  -0.460182  8.925465  -4.690359  -0.460182  8.925465  -4.4089  28.596755  3.439213  -133.921278  65.07485  -96.419433  -15.711892  -37.254884  104.200765  114.035138  28.11673  -21.054031  8.847036  -0.877059  14.98905  70.925294  37.510484  28.849855  -54.928288  26.536959  -88.592246  74.51933  23.386805  26.975301  14.474438  3.65745  -7.229124  10.897228  2.574015  -5.510405  
0.0  101.685394  0.0  1.663092  -24.723202  -102.09033  28.295004  -18.552371  5.971366  -1.666819  8.063117  29.627649  10.025397  5.003316  3.921421  6.404496  9.439988  -7.769304  10.035105  9.095258  23.951492  7.173786  1.035071  -3.995494  -1.718065  -0.246838  3.263275  -4.719669  -0.441463  8.93232  -4.719669  -0.441463  8.93232  -3.989975  28.681429  3.481233  -133.451616  65.233441  -95.490702  -15.683827  -37.147996  104.149703  114.002743  28.109607  -20.860486  8.915813  -0.697193  14.838229  72.495  38.169565  30.090506  -54.725225  26.11609  -88.73843  74.392498  23.475975  26.444637  14.956186  3.774361  -7.402319  11.260775  2.651968  -5.64624  
0.0  101.685394  0.0  1.750186  -24.537258  -101.75899  28.351382  -18.404501  5.223405  -2.042545  8.445256  30.282592  9.858877  5.107384  3.702797  6.398017  9.222601  -8.497317  10.278892  9.437534  24.894722  7.015817  1.080586  -4.031023  -1.713372  -0.238468  3.25  -4.705681  -0.420227  8.895429  -4.705681  -0.420227  8.895429  -4.006943  28.598874  3.334785  -132.861612  65.393353  -94.676084  -15.723595  -37.017359  104.226613  113.995403  28.15114  -20.651254  8.706513  -0.502255  14.560735  74.083589  38.719226  31.343914  -54.433076  25.690875  -88.893192  73.754145  23.28689  25.84036  15.29676  3.923486  -7.660213  11.519432  2.753447  -5.845609  
0.0  101.685394  0.0  1.852976  -24.05786  -101.344632  28.312303  -18.185152  4.395736  -2.462055  8.863618  31.045689  9.70925  5.228716  3.443738  6.238718  9.011482  -9.231205  10.288121  9.93692  25.852468  6.952584  1.156906  -4.0874  -1.736315  -0.225772  3.205664  -4.766404  -0.385735  8.773472  -4.766404  -0.385735  8.773472  -3.881356  28.566179  3.272038  -132.557588  65.547907  -93.905073  -15.621939  -37.039733  104.208988  113.943271  28.182472  -20.410287  8.259405  -0.342852  14.130806  76.051971  38.926248  32.856388  -54.137763  25.036677  -89.172568  72.386845  23.091287  24.791843  15.668359  4.045713  -7.858924  11.80075  2.835575  -6.000311  
0.0  101.685394  0.0  2.018767  -23.152077  -100.890031  27.903894  -17.839312  3.484744  -3.272998  9.44957  31.635097  9.910897  5.334769  3.272027  5.788334  8.91954  -9.891385  10.385816  10.467411  26.807892  6.583078  1.172077  -4.182033  -1.798466  -0.194296  3.130209  -4.931616  -0.297324  8.565176  -4.931616  -0.297324  8.565177  -3.8328  28.430644  3.223794  -132.254171  65.815372  -93.062592  -15.553091  -37.056877  104.00055  113.877964  28.151544  -20.067559  7.870091  -0.149621  13.724164  77.886084  38.847924  34.253848  -53.547475  23.953449  -89.507092  70.746088  22.90132  23.717032  15.986487  4.112954  -8.010908  12.041108  2.878094  -6.118332  
